<svg xmlns="http://www.w3.org/2000/svg" width="1153.381" height="107.155" viewBox="0 0 1153.381 107.155">
  <g id="グループ_1039" data-name="グループ 1039" transform="translate(-264.367 -1207.608)">
    <path id="パス_2152" data-name="パス 2152" d="M406.761,488.658h15.232a3.181,3.181,0,0,0,3.155-2.958V405.044h17.925a3.181,3.181,0,0,0,2.993-3.132v-14.92a3.139,3.139,0,0,0-2.993-2.959h-57.23a3.137,3.137,0,0,0-2.982,2.959v14.92a3.179,3.179,0,0,0,2.982,3.132h17.936V485.7A3.136,3.136,0,0,0,406.761,488.658Z" transform="translate(-118.494 825.261)"/>
    <path id="パス_2153" data-name="パス 2153" d="M434.778,488.647h15.208a3.152,3.152,0,0,0,3.167-2.958V386.982a3.142,3.142,0,0,0-3.167-2.947H434.778a3.127,3.127,0,0,0-2.993,2.947v41.489H412.346V386.982a3.138,3.138,0,0,0-3.155-2.947h-15.22a3.116,3.116,0,0,0-2.982,2.947v98.706a3.127,3.127,0,0,0,2.982,2.958h15.22a3.181,3.181,0,0,0,3.155-2.958V449.8h19.439v35.884A3.137,3.137,0,0,0,434.778,488.647Z" transform="translate(-32.69 825.272)"/>
    <path id="パス_2154" data-name="パス 2154" d="M449.3,405.044a3.137,3.137,0,0,0,2.982-2.958v-14.92a3.18,3.18,0,0,0-2.982-3.132h-46.69a3.136,3.136,0,0,0-2.982,2.959V485.7a3.136,3.136,0,0,0,2.982,2.958H449.3a3.179,3.179,0,0,0,2.982-3.132v-14.92a3.137,3.137,0,0,0-2.982-2.958H420.983V447.608H443.4a3.145,3.145,0,0,0,2.993-3.12v-14.92a3.13,3.13,0,0,0-2.993-2.958h-22.42V405.044Z" transform="translate(58.49 825.261)"/>
    <path id="パス_2155" data-name="パス 2155" d="M446.2,453.333c12.423-6.992,27.875-15.706,27.875-38.01,0-3.074-.439-11.025-4.53-18.063-5.143-8.875-14.053-13.371-26.477-13.371-12.331,0-21.219,4.322-26.384,12.828a34.944,34.944,0,0,0-4.611,17.428v.67a3.138,3.138,0,0,0,2.993,2.959h15.22a3.185,3.185,0,0,0,3.167-2.959v-1.005c0-5.478,3.409-8.737,9.107-8.737,5.986,0,10.159,4.357,10.159,10.6,0,9.2-7.882,13.856-17.012,19.253-11.638,6.865-24.835,14.666-24.835,34.173V487.24a3.138,3.138,0,0,0,2.993,2.959H470.05a3.179,3.179,0,0,0,2.981-3.132v-14.92a3.137,3.137,0,0,0-2.981-2.958H431.889v-1.953C431.889,461.4,438.2,457.84,446.2,453.333Z" transform="translate(177.157 823.72)"/>
    <path id="パス_2156" data-name="パス 2156" d="M485.386,485.7V386.993a3.138,3.138,0,0,0-2.993-2.959H467.184a3.151,3.151,0,0,0-3.167,2.959v49.648L441.4,386.7c-.728-1.7-1.919-2.67-3.271-2.67h-15.9a3.138,3.138,0,0,0-2.993,2.959V485.7a3.14,3.14,0,0,0,2.993,2.97h15.22a3.142,3.142,0,0,0,3.155-2.97V436.2l22.617,49.786c.74,1.722,1.9,2.682,3.271,2.682h15.9A3.14,3.14,0,0,0,485.386,485.7Z" transform="translate(265.486 825.261)"/>
    <path id="パス_2157" data-name="パス 2157" d="M430.834,384.034a3.138,3.138,0,0,0-2.994,2.959V485.7a3.138,3.138,0,0,0,2.994,2.958h27.828c20.814,0,33.249-13.336,33.249-35.687V419.906c0-22.467-12.435-35.872-33.249-35.872Zm39.709,69.618c0,8.505-4.657,13.995-11.881,13.995H449.21v-62.6h9.453c7.107,0,11.881,5.547,11.881,13.834Z" transform="translate(356.351 825.261)"/>
    <path id="パス_2158" data-name="パス 2158" d="M503.014,424.3v-4.391c0-22.467-12.5-35.872-33.434-35.872H443.473a3.343,3.343,0,0,0-2.819,3.132v98.544a3.277,3.277,0,0,0,2.819,3.109h15.22a3.315,3.315,0,0,0,3.166-3.109V459.824H468.2a56.029,56.029,0,0,0,6.565-.254l8.794,26.361c.393,1.329,1.445,2.889,3.132,2.889h15.22a3.306,3.306,0,0,0,3.166-3.109l-12.331-33.722C499.362,445.747,503.014,435.935,503.014,424.3Zm-21.38-5.42v6.1c0,8.645-4.612,14.007-12.054,14.007h-7.72V405.044h7.72C476.907,405.044,481.634,410.465,481.634,418.878Z" transform="translate(491.604 825.261)"/>
    <path id="パス_2159" data-name="パス 2159" d="M498.719,384.034H452.03a3.147,3.147,0,0,0-2.994,2.959V485.7a3.146,3.146,0,0,0,2.994,2.958h46.689a3.189,3.189,0,0,0,2.994-3.132v-14.92a3.148,3.148,0,0,0-2.994-2.958h-28.3V447.608h22.421a3.187,3.187,0,0,0,2.993-3.12v-14.92a3.13,3.13,0,0,0-2.993-2.958H470.416V405.044h28.3a3.148,3.148,0,0,0,2.994-2.958v-14.92A3.148,3.148,0,0,0,498.719,384.034Z" transform="translate(580.103 825.261)"/>
    <path id="パス_2160" data-name="パス 2160" d="M522.65,455.864a3.181,3.181,0,0,0-3.155-2.947h-15.22A3.285,3.285,0,0,0,501.3,456c-.347,8.587-4.715,13.7-11.719,13.7-7.212,0-11.869-5.42-11.869-13.834v-36.97c0-8.413,4.658-13.834,11.869-13.834,7,0,11.371,5.051,11.707,13.5a3.312,3.312,0,0,0,2.982,3.12h15.22a3.183,3.183,0,0,0,3.155-2.97c-.4-22.131-12.458-34.821-33.064-34.821-20.826,0-33.261,13.336-33.261,35.687v35.954c0,22.235,12.435,35.514,33.261,35.514C510.111,491.043,522.465,477.891,522.65,455.864Z" transform="translate(657.048 823.72)"/>
    <path id="パス_2161" data-name="パス 2161" d="M467.791,384.034a3.138,3.138,0,0,0-2.993,2.959V485.7a3.138,3.138,0,0,0,2.993,2.958H483a3.151,3.151,0,0,0,3.167-2.958V386.993A3.151,3.151,0,0,0,483,384.034Z" transform="translate(746.5 825.261)"/>
    <path id="パス_2162" data-name="パス 2162" d="M472.906,384.034a3.148,3.148,0,0,0-3,2.959V485.7a3.148,3.148,0,0,0,3,2.958h15.22a3.16,3.16,0,0,0,3.167-2.958V459.824h7.72c20.814,0,33.249-13.348,33.249-35.688v-4.23c0-22.467-12.435-35.872-33.249-35.872Zm38.161,40.773c0,8.644-4.624,14.006-12.054,14.006h-7.72V405.044h7.72c7.327,0,12.054,5.42,12.054,13.834Z" transform="translate(800.368 825.261)"/>
    <path id="パス_2163" data-name="パス 2163" d="M527.777,405.044a3.139,3.139,0,0,0,2.993-2.958v-14.92a3.148,3.148,0,0,0-2.993-3.132h-46.69a3.136,3.136,0,0,0-2.982,2.959V485.7a3.135,3.135,0,0,0,2.982,2.958h46.69a3.189,3.189,0,0,0,2.993-3.132v-14.92a3.139,3.139,0,0,0-2.993-2.958h-28.3V447.608h22.431a3.185,3.185,0,0,0,2.982-3.12v-14.92a3.128,3.128,0,0,0-2.982-2.958H499.474V405.044Z" transform="translate(886.979 825.261)"/>
  </g>
</svg>
