<svg id="グループ_1230" data-name="グループ 1230" xmlns="http://www.w3.org/2000/svg" width="84.089" height="48.102" viewBox="0 0 84.089 48.102">
  <path id="パス_2164" data-name="パス 2164" d="M462.256,203.784a1.836,1.836,0,0,0-1.426,1.042,4.549,4.549,0,0,0-.609,1.639,1.412,1.412,0,0,0,.644,1.5,1.637,1.637,0,0,0,.936.272,1.661,1.661,0,0,0,.658-.129,4.318,4.318,0,0,0,1.4-1.253,1.911,1.911,0,0,0,.412-1.8A1.889,1.889,0,0,0,462.256,203.784Z" transform="translate(-407.221 -203.777)"/>
  <path id="パス_2165" data-name="パス 2165" d="M316.217,294.5a1.766,1.766,0,0,0,.726.18,1.712,1.712,0,0,0,1.365-.363c.152-.152.314-.294.476-.436.143-.126.286-.253.425-.385a7.18,7.18,0,0,0,.964-1.238c.133-.2.257-.385.382-.55.7-.921,1.437-1.9,2.245-2.99q1.085-1.462,2.159-2.93L326.2,284.1c.158-.214.729-.976,1.393-1.846.584-.765,1.524-1.893,2.21-2.716l.231-.278c.11-.132.21-.247.3-.347-.5,1-1.341,2.608-1.928,3.721a26.075,26.075,0,0,0-1.293,2.626c-.318.779-2.009,5.063-2.147,5.43-.156.417-.318.85-.466,1.278-.074.217-.155.437-.236.658l-.077.207a9.393,9.393,0,0,0-.556,1.909,1.886,1.886,0,0,0-.025.5,1.92,1.92,0,0,0,.281.716c.146.259.311.5.476.741.085.124.17.248.253.375a1.306,1.306,0,0,0,.24.3,1.1,1.1,0,0,0,.53.229,1.644,1.644,0,0,0,1.429-.419.726.726,0,0,0,.089-.772,1.974,1.974,0,0,1-.152-1.086,6.833,6.833,0,0,1,.377-1.273l.083-.229c.259-.729.5-1.473.742-2.2.5-1.534,2.416-6.088,3.56-8.809.438-1.042.764-1.817.854-2.052.253-.655,1.3-2.889,1.548-3.332a10.326,10.326,0,0,1,.742-1.133,1.4,1.4,0,0,0,.407-1.006,1.245,1.245,0,0,0-.269-.591,2.09,2.09,0,0,0-2.217-.765,5.093,5.093,0,0,0-1.86,1.5l-.066.072c-.227.25-.465.491-.7.732-.364.367-.74.748-1.072,1.159-.565.7-1.09,1.4-1.691,2.215-.166.224-.336.454-.512.672-1.893,2.349-3.795,4.766-5.649,7.185q-.709.925-1.412,1.852c-.29.384-.591.77-.919,1.181-.073.092-.147.2-.225.312a9.89,9.89,0,0,1,.284-.951c.271-.76.583-1.545.98-2.47.317-.737.654-1.483.979-2.2l.134-.3c.392-.868.832-1.756,1.219-2.54.162-.328.314-.661.465-.995a15.75,15.75,0,0,1,1.025-2,1.982,1.982,0,0,0,.265-1.5,1.607,1.607,0,0,0-1.276-1.188,2.831,2.831,0,0,0-.595-.042h-.143a4.975,4.975,0,0,0-1.111.118,3.341,3.341,0,0,0-.945.331,1.172,1.172,0,0,0-.437.536,1.932,1.932,0,0,1-.1.189l-1.262,1.909c-.31.472-.619.945-.941,1.41-.338.486-.669.977-1,1.468s-.66.978-1,1.463c-.307.444-1.155,1.693-2.02,2.967-1.022,1.506-2.079,3.064-2.268,3.327-.125.173-.234.339-.344.505s-.217.33-.341.5l-.561.766c-.268.37-.5.712-.658.941l-.149.216a12.008,12.008,0,0,1-2.062,2.289l-.088.079c-.067.06-.132.126-.2.193-.186.188-.346.35-.542.359a1.612,1.612,0,0,1-.41-.138c-.083-.037-.159-.071-.226-.094a.606.606,0,0,0-.681.141.418.418,0,0,0-.075.51.516.516,0,0,0,.187.173.544.544,0,0,1,.109.139,1.242,1.242,0,0,0,.186.237,3.116,3.116,0,0,0,.508.378,3.811,3.811,0,0,0,.939.454,3.944,3.944,0,0,0,.864.118c.094.006.186.008.282.011a3.293,3.293,0,0,0,2.325-1.235l.149-.15a7.323,7.323,0,0,0,.833-1l.64-.861c.176-.287.373-.557.592-.856.265-.363.566-.775.9-1.311.209-.334,4.131-6.488,4.47-6.982l.252-.362q.618-.882,1.25-1.753l-.034.072-.638,1.35c-.086.184-.308.625-.53,1.068-.232.463-.465.927-.549,1.106-.22.474-.5,1.094-.611,1.352a18.579,18.579,0,0,0-.681,1.914c-.069.237-.126.484-.184.737a7.065,7.065,0,0,1-.23.744,6.613,6.613,0,0,0-.278.95,1.335,1.335,0,0,0,.07.9,1.412,1.412,0,0,0,.784.592C316.081,294.44,316.154,294.473,316.217,294.5Z" transform="translate(-304.331 -250.034)"/>
  <path id="パス_2166" data-name="パス 2166" d="M393.672,303.929c.107-.4.226-.792.351-1.183.119-.376.287-.856.456-1.34.187-.535.377-1.076.506-1.492.043-.14.094-.278.144-.417a2.9,2.9,0,0,0,.217-1.908,3.54,3.54,0,0,0-2.017-2.173,4.82,4.82,0,0,0-3.825-.039A10.93,10.93,0,0,0,384.9,300l-1.359,2.329a4.121,4.121,0,0,0-.8,3.454,3.749,3.749,0,0,0,1.8,2.162,3.309,3.309,0,0,0,1.511.426,2.016,2.016,0,0,0,.871-.19,5.67,5.67,0,0,0,.752-.457c.083-.057.166-.113.247-.166a3.331,3.331,0,0,0,.789-.83l.13-.172c.546-.7,1.148-1.479,1.745-2.339.006.055.013.112.022.17a3.527,3.527,0,0,0,.558,1.494,3.148,3.148,0,0,0,3.093,1.273,2.915,2.915,0,0,0,1.564-.575,5.464,5.464,0,0,0,1.251-1.4,5.92,5.92,0,0,0,.873-2.6,1.132,1.132,0,0,0-.028-.481.638.638,0,0,0-.5-.444c-.2-.027-.256.05-.668.637-.085.121-.159.227-.185.258l-.237.266c-.134.152-.27.306-.4.443l-.226.236a6.178,6.178,0,0,1-1.052.96c-.068.038-.14.082-.215.127a1.889,1.889,0,0,1-.945.365,1.749,1.749,0,0,1,.12-.8C393.63,304.074,393.653,304,393.672,303.929Zm-1.437-6.127a4.117,4.117,0,0,1-.411.714c-.061.092-.123.185-.183.281-.241.386-.354.538-.486.715-.253.339-.78,1.044-1.113,1.42-.3.343-.595.722-.875,1.089-.143.188-.285.374-.427.552-.218.274-.434.553-.649.831a24.078,24.078,0,0,1-2.163,2.543.635.635,0,0,1-.308.2c-.2.032-.325-.472-.33-.494L385,305.7l.276-.136c-.06-.386.017-.559.3-1.1.165-.32.348-.627.52-.913l.175-.29c.118-.194.237-.39.352-.587a8.272,8.272,0,0,1,.612-.9,32.4,32.4,0,0,1,2.562-3.014,7.25,7.25,0,0,1,1.879-1.39.763.763,0,0,1,.588-.034c.019.013.052.033.054.123A.881.881,0,0,1,392.235,297.8Z" transform="translate(-355.999 -263.993)"/>
  <path id="パス_2167" data-name="パス 2167" d="M472.729,290.394a2.735,2.735,0,0,0-1.554-1.827,3.518,3.518,0,0,0-2.511.081,6.12,6.12,0,0,0-1.993,1.211l-.411.421c-.311.318-.623.638-.927.964a18.714,18.714,0,0,0-2.361,3.293,6.021,6.021,0,0,0-.77,1.891,4.408,4.408,0,0,0,1.428,4.5,2.8,2.8,0,0,0,1.6.479,2.954,2.954,0,0,0,1.525-.414,6.45,6.45,0,0,0,2.332-2.066c.465-.683.83-1.238,1.147-1.739a25.635,25.635,0,0,0,1.81-3.547A7.742,7.742,0,0,0,472.729,290.394Zm-2.689,1.422-.1.187c-.189.384-.56,1.11-.794,1.523l-.183.33c-.162.3-.331.6-.507.869-.27.409-.55.807-.831,1.182-.294.393-.6.77-.9,1.123l-.252.3a6.951,6.951,0,0,1-1.68,1.595.963.963,0,0,1-.148.07.776.776,0,0,1,0-.1,5.443,5.443,0,0,1,.384-1.688,6.285,6.285,0,0,1,.731-1.359,11.554,11.554,0,0,1,1.248-1.551c.09-.092.172-.189.253-.286a3.419,3.419,0,0,1,.267-.295,13.223,13.223,0,0,0,.9-.972,10.625,10.625,0,0,1,1.178-1.222,5.005,5.005,0,0,1,.8-.592A3.8,3.8,0,0,1,470.04,291.817Z" transform="translate(-408.47 -259.619)"/>
  <path id="パス_2168" data-name="パス 2168" d="M508.3,288.7c-.31-.134-.61.135-.969.582-.073.092-.157.209-.239.324-.062.086-.123.171-.177.241a14.689,14.689,0,0,1-2.936,3.1c-.957.694-2.076,1.244-2.292,1.113a2.033,2.033,0,0,1,.006-.376l.007-.1a7.385,7.385,0,0,1,.115-.88,11.343,11.343,0,0,1,.453-1.7c.158-.459.331-.916.5-1.359.226-.6.482-1.274.7-1.946l.051-.158a3.239,3.239,0,0,0,.236-1.313,1.618,1.618,0,0,0-1.148-1.276,2.026,2.026,0,0,0-1.495.171,9.052,9.052,0,0,0-1.9,1.179,10.433,10.433,0,0,0-.941.921l-.28.3c-.109.115-.589.624-1.054,1.129a7.175,7.175,0,0,1,.349-.728l.107-.184a8.558,8.558,0,0,0,.552-1.072,2.513,2.513,0,0,0,.207-1.25,1.94,1.94,0,0,0-.455-1.022,2.2,2.2,0,0,0-1.351-.766,1.168,1.168,0,0,0-1.245.943c-.119.352-.234.706-.349,1.059-.241.738-.49,1.5-.767,2.236-.338.9-.688,1.774-1.044,2.6-.162.373-.34.739-.518,1.1-.107.22-.215.441-.319.663s-.193.452-.283.681a6.9,6.9,0,0,1-.451,1c-.089.151-.189.3-.289.44a6.41,6.41,0,0,0-.377.591,1.929,1.929,0,0,0-.157,1.661,1.451,1.451,0,0,0,.619.7c.066.038.132.082.2.125a1.56,1.56,0,0,0,.818.334.818.818,0,0,0,.461-.148,3.377,3.377,0,0,0,1.026-1.31,7.829,7.829,0,0,1,.586-.865c.1-.136.2-.271.3-.4.348-.5.716-1,1.124-1.543.345-.454.712-.924,1.092-1.4.767-.954,1.58-1.895,2.419-2.8l.08-.09c.12-.137.381-.432.664-.718l-.094.216c-.1.234-.165.422-.237.635l-.086.252c-.128.367-.242.739-.349,1.112-.076.271-.148.551-.206.809a5.355,5.355,0,0,0,.089,2.571,3.64,3.64,0,0,0,1.323,1.755,3.258,3.258,0,0,0,1.718.73,3.015,3.015,0,0,0,1.767-.4,12.727,12.727,0,0,0,2.334-2.137c.144-.158.267-.293.364-.391a9.307,9.307,0,0,0,1.232-1.442,3.159,3.159,0,0,0,.691-1.973c0-.049.017-.136.032-.239C508.585,289.423,508.67,288.859,508.3,288.7Z" transform="translate(-427.168 -256.476)"/>
  <path id="パス_2169" data-name="パス 2169" d="M431.775,299.286a4.035,4.035,0,0,0,.341-.415.574.574,0,0,0,.106-.417.4.4,0,0,0-.169-.258.46.46,0,0,0-.26-.076,1.313,1.313,0,0,0-.706.244,4.315,4.315,0,0,0-1.25,1.1,2.392,2.392,0,0,0,.1,2.817l.064.08a4.4,4.4,0,0,0,3.291,1.231h.122a7.188,7.188,0,0,0,2.8-.669,5.966,5.966,0,0,0,1.89-1.167,2.256,2.256,0,0,0,.658-1.264,3.6,3.6,0,0,0-1.213-2.925,6.114,6.114,0,0,0-1.962-1.232c-.068-.031-.171-.07-.294-.115-.655-.242-1.006-.428-1.01-.579a6.782,6.782,0,0,1,1.306-1c.162-.106.325-.211.483-.32a9.347,9.347,0,0,1,2.333-1.086,3.4,3.4,0,0,1,.366-.107,2.021,2.021,0,0,1-.405.435l-.136.123a.4.4,0,0,0-.133.287.328.328,0,0,0,.113.246l.136.086h.109a1.6,1.6,0,0,0,.645-.176c.815-.362,1.753-1.135,1.712-2.1a1.578,1.578,0,0,0-.953-1.58,2.783,2.783,0,0,0-.644-.22,5.517,5.517,0,0,0-4.061.838,8.912,8.912,0,0,0-2.809,2.663,2.909,2.909,0,0,0-.534,1.831,3.126,3.126,0,0,0,1.118,1.781,7.471,7.471,0,0,0,2.372,1.352c.265.111.53.222.784.341a.984.984,0,0,1,.136.08c-.02.078-.263.366-1.145.768a5.539,5.539,0,0,1-3.313.348c-.242-.04-.384-.1-.422-.172a.2.2,0,0,1,0-.144A1.936,1.936,0,0,1,431.775,299.286Z" transform="translate(-386.905 -260.777)"/>
  <path id="パス_2170" data-name="パス 2170" d="M312.431,222.744c.036.046.071.09.1.13a1.155,1.155,0,0,1,.088.184,1.494,1.494,0,0,0,.208.382,1.713,1.713,0,0,0,1.1.492,2.51,2.51,0,0,0,1.01-.141l.207-.071c.053-.019.279-.086,1.2-.333.216-.058.925-.222,1.22-.291l.067-.016c.306-.072.961-.215,1.4-.307l-.132.208c-.219.306-1.422,2.325-1.65,2.731-.255.452-1.046,1.858-1.223,2.191l-.045.086a1.41,1.41,0,0,1-.165.276.579.579,0,0,1-.3.1h0a.67.67,0,0,1-.258-.09.676.676,0,0,0-.428-.242.627.627,0,0,0-.473.136.817.817,0,0,0-.3.542c-.042.375.294.618.516.779a1.556,1.556,0,0,1,.151.117,3.587,3.587,0,0,1,.284.322,2.767,2.767,0,0,0,.561.563,1.689,1.689,0,0,0,.965.329,1.444,1.444,0,0,0,.294-.03c.93-.191,1.6-1.249,1.954-1.818.369-.585,1.363-2.4,1.84-3.269l.249-.454c.124-.221.374-.652.633-1.1.327-.565.669-1.156.8-1.392l.041-.075c.094-.173.2-.366.282-.5s.082-.131.163-.142c0,0,1.639-.294,2.676-.467,1.132-.188,3-.48,3.791-.6-.249.592-.729,1.733-.882,2.171-.125.36-.239.723-.354,1.085-.094.3-.189.6-.29.9a1.967,1.967,0,0,0-.112.926,2.657,2.657,0,0,0,.152.576l.039.112a3.148,3.148,0,0,0,.3.687,3.231,3.231,0,0,0,.777.764,1.592,1.592,0,0,0,1.254.266.741.741,0,0,0,.259-.106.823.823,0,0,0,.3-.509l.3-1.214c.079-.31.168-.618.263-.924.085-.278.168-.554.25-.83.1-.34.2-.679.31-1.02l.1-.325c.107-.344.288-.865.469-1.389.188-.543.377-1.088.487-1.444l.021-.07.008-.028.027,0c.119-.011.262-.025.552-.043.469-.029,1.991-.1,2.636-.083a1.04,1.04,0,0,1,.442.078c.033.017.065.035.1.054a.94.94,0,0,0,.445.16.561.561,0,0,0,.5-.232.622.622,0,0,0,.094-.351,1.776,1.776,0,0,0-.087-.585,3.12,3.12,0,0,0-.2-.447l-.032-.062a1.129,1.129,0,0,0-1.083-.8c-.232-.012-.843-.018-.847-.018-.351,0-.66.032-1.128.079l-.53.052c.058-.133.128-.29.193-.436.085-.191.162-.365.2-.448a80.838,80.838,0,0,0,2.887-7.867c.114-.439.276-.945.389-1.271a3.79,3.79,0,0,0,.215-1.553,2.019,2.019,0,0,0-1.352-1.847,3.433,3.433,0,0,0-2.134-.126,6.651,6.651,0,0,0-.769.337,15.765,15.765,0,0,0-4.951,4.308c-.466.572-.914,1.114-1.344,1.634-1.427,1.728-2.661,3.22-3.679,4.738-.533.794-1.048,1.554-1.493,2.212-.657.97-1.163,1.718-1.358,2.029l-.064.1a.627.627,0,0,1-.113.156l-1.236.2c-1.168.187-3.528.646-4.708.934l-.221.055a4.313,4.313,0,0,1-1,.175,1.643,1.643,0,0,1-.2-.058,1.28,1.28,0,0,0-.5-.1.469.469,0,0,0-.326.17.5.5,0,0,0-.1.377A1.256,1.256,0,0,0,312.431,222.744Zm13.375-5.106c.46-.677.936-1.378,1.429-2.047.717-.976,1.419-1.869,2.146-2.729.415-.492.866-1.017,1.355-1.522.135-.139.265-.284.394-.429a30.619,30.619,0,0,1,2.941-2.79c-.029.132-.065.284-.109.453a31.909,31.909,0,0,1-1,3.184c-.133.354-.523,1.356-.917,2.364-.444,1.138-.892,2.284-.977,2.524-.1.275-.824,2.01-.858,2.087a.4.4,0,0,1-.029.059,1.48,1.48,0,0,1-.366.06c-1.979.248-4.117.576-4.575.665-.252.049-.578.1-.834.136C324.847,219.029,325.652,217.866,325.806,217.639Z" transform="translate(-309.467 -204.409)"/>
  <path id="パス_2171" data-name="パス 2171" d="M439.906,227.539a3.485,3.485,0,0,0-1.853-1.307c-1.554-.3-2.8.569-4.005,1.4a9.964,9.964,0,0,1-1.718,1.032c-.054.023-.112.039-.168.059.365-.57.715-1.155,1.032-1.751a20.18,20.18,0,0,0,1.645-3.806,6.123,6.123,0,0,0,.138-2.226,2.712,2.712,0,0,0-1.21-1.73,2.86,2.86,0,0,0-2.486-.213,5.961,5.961,0,0,0-2.371,1.679,13.125,13.125,0,0,0-1.287,1.585c-.2.272-.4.549-.622.831a10.008,10.008,0,0,0-.949,1.6l-.141.27a13.069,13.069,0,0,0-.594,1.239,17.864,17.864,0,0,1-2.161,2l-.158.128a9.731,9.731,0,0,1-1.639,1.083l-.069.037a2.364,2.364,0,0,1-.624.221c0-.1,0-.211.01-.308l0-.094a8.279,8.279,0,0,1,.1-.884,11.892,11.892,0,0,1,.413-1.69c.147-.456.306-.911.475-1.389.214-.611.435-1.244.623-1.888a4.858,4.858,0,0,0,.261-1.46,1.735,1.735,0,0,0-1.117-1.278,1.792,1.792,0,0,0-1.4.1,5.438,5.438,0,0,0-1.089.69c-.044.035-.092.066-.139.1l-.109.073a8.149,8.149,0,0,0-1.154,1.087l-.256.271c-.416.435-.707.745-1.136,1.229.008-.022.017-.043.026-.065a7.3,7.3,0,0,1,.326-.732l.091-.166a8.618,8.618,0,0,0,.52-1.074,2.619,2.619,0,0,0,.186-1.24,2.3,2.3,0,0,0-1.233-1.749,1.323,1.323,0,0,0-.97-.036,1.228,1.228,0,0,0-.705.866c-.439,1.416-.991,2.846-1.526,4.229l-.367.952c-.124.325-.255.7-.389,1.081-.245.7-.5,1.421-.756,1.985-.012.027-.016.031-.079.1a8.3,8.3,0,0,1-1.562,1.435c-.179.127-.36.275-.542.426a5.232,5.232,0,0,1-.907.649,4.136,4.136,0,0,1-1.277.46.238.238,0,0,1-.132-.015c-.006-.006-.022-.037-.03-.165a3.06,3.06,0,0,1,.079-1.133,10.484,10.484,0,0,1,.681-1.947c.128-.3.263-.6.4-.894.156-.343.676-1.408,1.171-2.316.106-.2.743-1.173.947-1.468a2.868,2.868,0,0,0,.406-.735,1.458,1.458,0,0,0-.484-1.508,1.615,1.615,0,0,0-1.526-.627,1.646,1.646,0,0,0-1.131.968c-.04.068-.081.138-.124.209a15.78,15.78,0,0,0-1.311,2.941c-.123.339-.247.678-.383,1.024l-.422,1.188c-.156.444-.245.768-.35,1.156-.046.165-.094.342-.151.541a.36.36,0,0,0-.016.076,1.444,1.444,0,0,1-.185.191c-.049.045-.092.086-.122.117-.116.128-.235.253-.358.373a11.115,11.115,0,0,1-.973.816c-.136.105-.273.211-.419.3-.5.323-.932.578-1.312.78a9.66,9.66,0,0,1-2.1.759l-.049.012a6.188,6.188,0,0,1,.328-1.416,12.666,12.666,0,0,1,.543-1.293,25.786,25.786,0,0,1,1.422-2.472l.171-.273a3.735,3.735,0,0,0,.549-2.084,1.843,1.843,0,0,0-1.893-1.352,2.7,2.7,0,0,0-1.537.777l-.166.135a25.809,25.809,0,0,0-2.12,1.93,2.36,2.36,0,0,0-1.785-2.607,2.361,2.361,0,0,0-1.827.512h0l-.077.048a10.254,10.254,0,0,0-1.458,1.133c-.638.578-1.163,1.085-1.666,1.607.128-.29.261-.585.414-.864.057-.106.118-.208.21-.362a4.609,4.609,0,0,0,.52-1.08c.217-.75.3-1.2-.466-1.812a2.613,2.613,0,0,0-1.091-.463h-.005a1.422,1.422,0,0,0-1.374,1.044,6.457,6.457,0,0,1-.432.991c-.072.144-.144.289-.21.436l-.695,1.534c-.2.448-.407.9-.616,1.34-.1.22-.4.985-.716,1.795-.291.748-.592,1.522-.692,1.741l-.121.263c-.125.27-.254.537-.383.8l-.039.081c-.07.145-.148.293-.226.441a5.323,5.323,0,0,0-.589,1.439,2,2,0,0,0,.247,1.47,1.227,1.227,0,0,0,1.005.516l.079.009a2.474,2.474,0,0,0,.285.022.756.756,0,0,0,.743-.5c.106-.223.2-.474.294-.707l.1-.249c.1-.244.22-.466.226-.481a3.9,3.9,0,0,0,.441-.444c.181-.226.359-.455.534-.684l.326-.425q.246-.323.494-.645c.176-.226.353-.452.534-.673.3-.369.606-.726.972-1.148l.24-.276c.258-.3.515-.593.769-.893a16.019,16.019,0,0,1,2.1-2.042c.15-.122.365-.3.519-.413.086-.065.167-.135.248-.2l.064-.055c-.037.088-.088.2-.157.331-.08.159-.168.312-.256.465-.064.111-.127.222-.188.334-.379.7-.754,1.457-1.115,2.241-.073.158-.151.318-.23.478a7.53,7.53,0,0,0-.638,1.6,2.366,2.366,0,0,1-.076.239,1.588,1.588,0,0,0-.131.672,1.665,1.665,0,0,0,.444,1.083,1.446,1.446,0,0,0,1.469.094,1.563,1.563,0,0,0,.467-.47,8.881,8.881,0,0,1,.747-.857l.486-.519c.231-.246.47-.5.689-.76.5-.6.9-1.054,1.27-1.474.161-.182.368-.43.587-.694.336-.4.717-.86.981-1.131-.089.207-.172.414-.257.626-.069.172-.138.33-.2.474-.081.186-.153.35-.2.5a6.367,6.367,0,0,0-.382,1.962,2.941,2.941,0,0,0,.495,1.46,3.114,3.114,0,0,0,2.624,1.2c.059-.005.116-.007.176-.01a3.475,3.475,0,0,0,.99-.166,4.782,4.782,0,0,0,1.247-.572A10.744,10.744,0,0,0,404,231.614c.09-.1.164-.173.233-.244.1-.106.2-.2.316-.341a.052.052,0,0,1,0,.01,3.765,3.765,0,0,0,.162.621,3.811,3.811,0,0,0,.415.832,3.107,3.107,0,0,0,.607.616,2.206,2.206,0,0,0,1.9.462,3.347,3.347,0,0,0,1.028-.321c.326-.179.663-.365.989-.587.1-.072.313-.253.593-.5a.576.576,0,0,0,.144.3,1.241,1.241,0,0,0,.367.262c.065.034.13.072.2.112a2.558,2.558,0,0,0,.628.294.733.733,0,0,0,.8-.334c.087-.116.182-.23.277-.345a6.075,6.075,0,0,0,.513-.682l.188-.312c.2-.329.406-.67.622-1,.337-.506.688-1.015,1.044-1.511l.333-.468c.33-.466.744-1.048,1-1.378.715-.934,1.469-1.85,2.247-2.727l.076-.089c.1-.122.416-.5.735-.818a27.113,27.113,0,0,0-1.339,4.264,3.866,3.866,0,0,0-.066,1.933,3.573,3.573,0,0,0,.5,1.116,3.405,3.405,0,0,0,1.757,1.309,2.925,2.925,0,0,0,2.134-.051,5.354,5.354,0,0,0,1.7-1.325c.371-.4.976-.984,1.21-1.206a2.912,2.912,0,0,0,.43.879,4.458,4.458,0,0,0,.77.789,3.7,3.7,0,0,0,.854.53,1.574,1.574,0,0,0,.764.09,3.916,3.916,0,0,0,1.745-.6,1.617,1.617,0,0,0,.248.062,4.9,4.9,0,0,0,3.783-1.215c.12-.093.25-.2.388-.309a5.562,5.562,0,0,1,2.456-1.4,1.315,1.315,0,0,1,1.126.4,1.8,1.8,0,0,1-.039,1.62,5.83,5.83,0,0,1-2.164,2.936,10.372,10.372,0,0,1-3.714,1.685c-3.687.948-7.479.885-12.278.8-2.809-.047-5.992-.1-9.772.028a131.765,131.765,0,0,0-17.667,2.285,1.747,1.747,0,0,0-1.225,1.013c-.078.125-.165.262-.268.412-.124.181-.254.384-.394.6a13.839,13.839,0,0,1-2.16,2.754l-.717.687.974-.192a12.6,12.6,0,0,0,2.25-.78c2.32-.952,6.2-2.544,15.24-3.786a79.658,79.658,0,0,1,11.144-.529,88.157,88.157,0,0,0,12.5-.622c.384-.053.777-.122,1.167-.2a13.924,13.924,0,0,0,7.029-3.4,7.69,7.69,0,0,0,2.3-3.385A3.45,3.45,0,0,0,439.906,227.539Zm-9.072-2.289a14.468,14.468,0,0,1-1.463,2.106c-.177.2-.343.409-.509.621a4.705,4.705,0,0,1-1.292,1.277c-.039.022-.074.041-.1.055a4.908,4.908,0,0,1,.62-2.456c.086-.173.18-.341.273-.508.122-.216.242-.433.347-.659a5.64,5.64,0,0,1,.674-1.073c.106-.136.22-.289.342-.45a10.431,10.431,0,0,1,1.639-1.872c.345-.262.693-.517,1.056-.761a1.8,1.8,0,0,1,.347-.182,5.363,5.363,0,0,1-.385,1.071c-.336.722-.968,1.889-1.438,2.657Z" transform="translate(-356.28 -213.706)"/>
</svg>
