<svg xmlns="http://www.w3.org/2000/svg" width="16.869" height="13.744" viewBox="0 0 16.869 13.744">
  <path id="パス_144" data-name="パス 144" d="M86.408,3.561a7.457,7.457,0,0,1-1.97.557A3.636,3.636,0,0,0,85.98,2.191a8,8,0,0,1-2.184.856,3.635,3.635,0,0,0-2.569-1.113A3.454,3.454,0,0,0,77.759,5.4a4.242,4.242,0,0,0,.086.771,9.948,9.948,0,0,1-7.15-3.6,3.471,3.471,0,0,0-.471,1.755A3.383,3.383,0,0,0,71.765,7.2a3.371,3.371,0,0,1-1.584-.428v.043A3.447,3.447,0,0,0,72.964,10.2a3.259,3.259,0,0,1-.9.128c-.214,0-.428-.043-.642-.043a3.461,3.461,0,0,0,3.211,2.4,6.848,6.848,0,0,1-4.282,1.5,4.916,4.916,0,0,1-.813-.043A9.863,9.863,0,0,0,84.7,5.83V5.4A9.939,9.939,0,0,0,86.408,3.561Z" transform="translate(-69.539 -1.934)" fill="#fff"/>
</svg>
