<svg xmlns="http://www.w3.org/2000/svg" width="115.837" height="34.473" viewBox="0 0 115.837 34.473">
  <path id="logo" d="M97.29,50.585H27.25l5.588,5.588Zm11.235-3.548V35.862a3.559,3.559,0,1,1,7.1,0V47.038h4.317V35.862c0-4.612-3.134-8.308-7.746-8.308a6.835,6.835,0,0,0-3.7,1.183v-.769h-4.317V46.949H108.5v.089ZM94.216,27.495c-5.026,0-8.574,4.405-8.574,9.993,0,5.854,4.464,9.993,9.017,9.993,2.306,0,5.174-.769,7.6-4.257l-3.844-2.247c-2.927,4.317-7.894,2.158-8.456-2.247h12.417C103.5,32.018,99.094,27.495,94.216,27.495ZM98,35.034H90.254a3.905,3.905,0,0,1,7.746,0Zm-13.777,7.45a2.768,2.768,0,0,1-1.478.5,2.115,2.115,0,0,1-2.01-2.306v-8.16h3.7V28h-3.7v-4.76H76.417V28H74.111v4.524h2.306v8.16a6.492,6.492,0,0,0,6.416,6.77,9.16,9.16,0,0,0,4.2-1.183ZM68.316,27.968V39.144a3.559,3.559,0,1,1-7.1,0V27.968H56.9V39.144c0,4.612,3.134,8.308,7.746,8.308a6.835,6.835,0,0,0,3.7-1.183v.71h4.317V28H68.316ZM48.773,36.926,56.165,28h-6L44.93,34.62V21.7H40.525V47.038H44.93V39.232l6.416,7.805h6ZM33.754,27.968V28.8a7.131,7.131,0,0,0-4.05-1.33c-4.878,0-8.663,4.464-8.663,9.993s3.7,9.993,8.663,9.993a6.989,6.989,0,0,0,4.05-1.33v.828h4.317V27.968Zm-4.11,14.96c-2.454,0-4.2-2.365-4.2-5.381s1.744-5.381,4.2-5.381,4.11,2.365,4.11,5.381C33.813,40.533,32.069,42.928,29.645,42.928ZM8.624,47.038V39.646h3.134l5.529,7.332h5.647l-6.711-8.87a8.2,8.2,0,0,0-4.73-14.871H4.1V46.978H8.624Zm0-19.277H11.55a3.7,3.7,0,1,1,0,7.391H8.624Z" transform="translate(-4.1 -21.7)"/>
</svg>
