<svg xmlns="http://www.w3.org/2000/svg" width="124.619" height="25.167" viewBox="0 0 124.619 25.167">
  <g id="グループ_1371" data-name="グループ 1371" transform="translate(13.244 -14.145)">
    <path id="パス_2506" data-name="パス 2506" d="M159.143,59.363a9.325,9.325,0,1,1,9.325-9.325A9.325,9.325,0,0,1,159.143,59.363Zm0-15.391a6.066,6.066,0,1,0,6.066,6.066A6.066,6.066,0,0,0,159.143,43.972Z" transform="translate(-116.571 -23.31)"/>
    <path id="パス_2507" data-name="パス 2507" d="M346.889,59.363a9.325,9.325,0,1,1,9.325-9.325v1.313a.317.317,0,0,1-.317.317H341.046a6.067,6.067,0,0,0,9.913,2.869.317.317,0,0,1,.438.009l1.858,1.858a.317.317,0,0,1-.007.456,9.259,9.259,0,0,1-6.358,2.5Zm-5.843-10.954h11.687a6.067,6.067,0,0,0-11.687,0Z" transform="translate(-244.839 -23.31)"/>
    <path id="パス_2508" data-name="パス 2508" d="M279.65,40.713A5.459,5.459,0,0,0,275.8,42.3a5.474,5.474,0,0,0-9.325,3.893V58.231a.317.317,0,0,0,.317.317h2.625a.317.317,0,0,0,.317-.317V46.19a2.218,2.218,0,1,1,4.436,0V58.231a.317.317,0,0,0,.317.317h2.625a.317.317,0,0,0,.317-.317V46.19a2.218,2.218,0,1,1,4.436,0V58.231a.317.317,0,0,0,.317.317h2.625a.317.317,0,0,0,.317-.317V46.19a5.483,5.483,0,0,0-5.477-5.477Z" transform="translate(-196.273 -23.31)"/>
    <path id="パス_2509" data-name="パス 2509" d="M29.666,51A6.065,6.065,0,0,0,23.6,57.067,6.065,6.065,0,0,0,29.666,51Z" transform="translate(-30.339 -30.34)"/>
    <path id="パス_2510" data-name="パス 2510" d="M15.6,30.427a12.583,12.583,0,1,0,2.973,24.821.317.317,0,0,0,.233-.391L18.13,52.32a.316.316,0,0,0-.378-.226,9.331,9.331,0,1,1,4.684-2.706.426.426,0,0,1-.3.122.447.447,0,0,1-.435-.448V43.011h0a6.065,6.065,0,0,0-6.065,6.065,6.037,6.037,0,0,0,2.806-.689v.632a3.743,3.743,0,0,0,3.74,3.75,3.668,3.668,0,0,0,2.527-1.044q.036-.034.07-.07A12.583,12.583,0,0,0,15.6,30.428Z" transform="translate(-16.308 -16.283)"/>
    <path id="パス_2511" data-name="パス 2511" d="M48.812,57.067V51.319A.317.317,0,0,0,48.494,51H45.869a.317.317,0,0,0-.317.317v.372A6.037,6.037,0,0,0,42.746,51a6.065,6.065,0,0,0,6.065,6.065Z" transform="translate(-43.419 -30.34)"/>
    <path id="パス_2512" data-name="パス 2512" d="M23.6,70.148h0a6.065,6.065,0,0,0,6.065,6.065A6.065,6.065,0,0,0,23.6,70.148Z" transform="translate(-30.339 -43.42)"/>
    <path id="パス_2513" data-name="パス 2513" d="M101.564,59.363a9.325,9.325,0,1,1,6.359-16.146.317.317,0,0,1,.007.455l-1.858,1.858a.318.318,0,0,1-.439.008,6.066,6.066,0,1,0,0,9,.317.317,0,0,1,.438.009l1.858,1.858a.317.317,0,0,1-.007.456,9.259,9.259,0,0,1-6.358,2.5Z" transform="translate(-77.232 -23.31)"/>
    <path id="パス_2514" data-name="パス 2514" d="M223.831,48.408a2.218,2.218,0,1,1,1.346-3.982.32.32,0,0,0,.423-.025l1.851-1.871a.321.321,0,0,0-.018-.467,5.491,5.491,0,1,0-3.6,9.6,2.218,2.218,0,1,1-1.346,3.981.32.32,0,0,0-.423.025l-1.851,1.871a.321.321,0,0,0,.018.467,5.491,5.491,0,1,0,3.6-9.6Z" transform="translate(-163.361 -23.309)"/>
  </g>
</svg>
